<svg width="516" height="56" viewBox="0 0 516 56" fill="none" xmlns="http://www.w3.org/2000/svg">
<g clip-path="url(#clip0_358_95)">
<path d="M476.06 55.57H27.94C27.72 41.99 15.21 30.55 0 30.02V25.11C6.41 25.31 12.13 23.22 17.09 19.46C23.6 14.52 27.45 7.87 28.37 0H475.54" fill="black"/>
<path d="M458.7 55.57C608.07 55.57 338.4 55.57 487.77 55.57C487.99 41.99 500.5 30.55 515.71 30.02V25.11C509.3 25.31 503.58 23.22 498.62 19.46C492.12 14.52 488.26 7.87 487.35 0C338.05 0 608.2 0 459.22 0" fill="black"/>
</g>
<defs>
<clipPath id="clip0_358_95">
<rect width="515.72" height="55.57" fill="white"/>
</clipPath>
</defs>
</svg>
